# xmcd
#
# Track frame offsets:
#	150
#	11316
#	25099
#	36937
#	49510
#	62696
#	74998
#	90629
#	102965
#	113983
#	125528
#	135760
#	149854
#	163854
#	175059
#	184096
#	196080
#	207625
#	220133
#	232863
#	244987
#	256508
#	272761
#	287591
#
# Disc length: 3980 seconds
#
# Revision: 1
# Processed by: cddbd v1.5.2PL0 Copyright (c) Steve Scherf et al.
# Submitted via: audiograbber 1.83.01
#
DISCID=5e0f8a18
DTITLE=Amos Milburn - CLASSICS 5158    1952 - 1953 
DYEAR=1951
DGENRE=Rythm and Blues
TTITLE0=Thinking And Drinking
TTITLE1=Put Something In My Hand
TTITLE2=Trouble In Mind
TTITLE3=Squeeze My Blues Away
TTITLE4=Flying Home
TTITLE5=Roll Mr Jelly
TTITLE6=I Won't Be A Fool Anymore
TTITLE7=Long, Long Day
TTITLE8=I'm Still A Fool For You
TTITLE9=Boo Hoo
TTITLE10=Rocky Mountain
TTITLE11=Greyhound
TTITLE12=Kiss Me Again (Slow)
TTITLE13=Sormy Weather
TTITLE14=Kiss Me Again (Fast)
TTITLE15=Rock Rock Rock
TTITLE16=Three Times A Fool
TTITLE17=Why Don't You Do Right
TTITLE18=Let Me Go Home Whiskey
TTITLE19=Please Mr Johnson
TTITLE20=Let's Have A Party (Version 1)
TTITLE21=Without Someone To Call Your Own
TTITLE22=One Scotch, One Bourbon, One Beer
TTITLE23=Sorrowful Heart
EXTD=
EXTT0=
EXTT1=
EXTT2=
EXTT3=
EXTT4=
EXTT5=
EXTT6=
EXTT7=
EXTT8=
EXTT9=
EXTT10=
EXTT11=
EXTT12=
EXTT13=
EXTT14=
EXTT15=
EXTT16=
EXTT17=
EXTT18=
EXTT19=
EXTT20=
EXTT21=
EXTT22=
EXTT23=
PLAYORDER=
